<svg width="1080" height="705" viewBox="0 0 1080 705" fill="none" xmlns="http://www.w3.org/2000/svg">
<path d="M586.824 124.362C570.872 130.584 558.247 147.308 556.128 165.027C554.257 180.687 560.651 194.89 573.68 203.999L691.835 286.463C674.847 297.436 664.34 318.446 674.079 343.088L725.33 472.894C735.207 497.846 753.962 515.153 779.556 522.919L820.785 535.5C824.288 536.58 827.326 538.063 830.513 539.864L824.461 550.347C821.113 556.145 823.101 563.566 828.9 566.914L870.507 590.936C876.306 594.284 883.727 592.295 887.075 586.497L978.527 428.096C981.875 422.297 979.887 414.877 974.088 411.529L932.481 387.507C926.682 384.159 919.261 386.147 915.913 391.946L910.427 401.448C903.199 395.792 898.225 389.921 894.575 382.914L834.033 266.626C827.718 254.504 817.224 244.98 806.116 235.485C805.555 235.003 804.943 234.574 804.298 234.202L625.182 130.789C613.851 121.585 599.939 119.239 586.828 124.358L586.824 124.362ZM951.461 426.481L872.137 563.875L851.536 551.981L930.86 414.587L951.461 426.481ZM610.341 149.998C610.91 150.485 611.52 150.913 612.165 151.286L791.211 254.658C798.505 260.896 808.044 269.23 812.529 277.842L873.07 394.13C879.83 407.098 889.208 416.05 898.213 422.641L842.656 518.868C838.31 516.405 833.599 514.068 827.908 512.314L786.634 499.717C768.347 494.165 754.951 481.808 747.899 463.976L696.654 334.173C690.447 318.451 699.862 308.287 709.809 304.356C712.361 303.346 715.163 302.667 718.035 302.477C718.665 302.503 719.3 302.487 719.921 302.426C727.611 302.514 735.415 306.348 739.661 317.09L776.699 410.915C779.162 417.145 786.202 420.2 792.431 417.739C798.661 415.276 801.717 408.236 799.26 402L762.222 308.176C754.421 288.425 738.719 279.286 722.55 278.297L587.58 184.1C581.891 180.126 579.412 174.671 580.225 167.895C581.289 158.966 587.924 149.969 595.649 146.953C600.798 144.942 605.606 145.942 610.345 149.994L610.341 149.998Z" fill="#1E54BE"/>
<path d="M493.382 124.362C509.335 130.584 521.959 147.308 524.079 165.027C525.95 180.687 519.556 194.89 506.526 203.999L388.372 286.463C405.36 297.436 415.867 318.446 406.127 343.088L354.877 472.894C345 497.846 326.245 515.153 300.651 522.919L259.422 535.5C255.918 536.58 252.881 538.063 249.694 539.864L255.746 550.347C259.094 556.145 257.105 563.566 251.307 566.914L209.699 590.936C203.901 594.284 196.48 592.295 193.132 586.497L101.679 428.096C98.3315 422.297 100.32 414.877 106.119 411.529L147.726 387.507C153.525 384.159 160.946 386.147 164.293 391.946L169.78 401.448C177.008 395.792 181.982 389.921 185.632 382.914L246.174 266.626C252.489 254.504 262.983 244.98 274.091 235.485C274.652 235.003 275.264 234.574 275.909 234.202L455.024 130.789C466.356 121.585 480.267 119.239 493.379 124.358L493.382 124.362ZM128.745 426.481L208.07 563.875L228.671 551.981L149.346 414.587L128.745 426.481ZM469.866 149.998C469.296 150.485 468.686 150.913 468.041 151.286L288.996 254.658C281.702 260.896 272.163 269.23 267.678 277.842L207.136 394.13C200.376 407.098 190.999 416.05 181.994 422.641L237.551 518.868C241.897 516.405 246.608 514.068 252.299 512.314L293.573 499.717C311.86 494.165 325.256 481.808 332.308 463.976L383.553 334.173C389.76 318.451 380.345 308.287 370.398 304.356C367.846 303.346 365.044 302.667 362.172 302.477C361.542 302.503 360.907 302.487 360.285 302.426C352.595 302.514 344.792 306.348 340.545 317.09L303.508 410.915C301.045 417.145 294.005 420.2 287.776 417.739C281.546 415.276 278.49 408.236 280.947 402L317.985 308.176C325.786 288.425 341.488 279.286 357.657 278.297L492.627 184.1C498.316 180.126 500.795 174.671 499.982 167.895C498.918 158.966 492.283 149.969 484.557 146.953C479.409 144.942 474.601 145.942 469.862 149.994L469.866 149.998Z" fill="#1E54BE"/>
<path d="M558.228 462.97V343.703H610.364C623.313 343.703 634.672 346.202 644.44 351.2C654.209 356.198 661.819 363.126 667.271 371.986C672.723 380.846 675.449 391.296 675.449 403.336C675.449 415.263 672.723 425.713 667.271 434.686C661.819 443.546 654.209 450.475 644.44 455.473C634.672 460.471 623.313 462.97 610.364 462.97H558.228ZM580.377 444.228H609.342C618.315 444.228 626.039 442.524 632.514 439.116C639.102 435.709 644.156 430.938 647.677 424.804C651.312 418.671 653.13 411.515 653.13 403.336C653.13 395.044 651.312 387.888 647.677 381.868C644.156 375.735 639.102 370.964 632.514 367.556C626.039 364.149 618.315 362.445 609.342 362.445H580.377V444.228Z" fill="#F17300"/>
<path d="M471.701 462.97L419.564 343.703H443.588L490.102 451.554H476.301L523.326 343.703H545.476L493.51 462.97H471.701Z" fill="#F17300"/>
</svg>
