<svg width="1044" height="600" viewBox="0 0 1044 600" fill="none" xmlns="http://www.w3.org/2000/svg">
<g clip-path="url(#clip0_1_41)">
<path d="M575.16 41.7005C557.059 48.761 542.734 67.737 540.33 87.8434C538.206 105.612 545.461 121.728 560.246 132.064L694.315 225.635C675.039 238.087 663.117 261.927 674.168 289.887L732.322 437.178C743.529 465.491 764.81 485.129 793.852 493.941L840.634 508.216C844.609 509.442 848.056 511.125 851.672 513.168L844.805 525.063C841.006 531.642 843.262 540.063 849.842 543.861L897.054 571.119C903.633 574.918 912.054 572.662 915.853 566.082L1019.62 386.346C1023.42 379.766 1021.17 371.346 1014.59 367.547L967.374 340.289C960.795 336.49 952.374 338.747 948.576 345.326L942.35 356.109C934.149 349.691 928.505 343.029 924.363 335.078L855.667 203.127C848.501 189.372 836.593 178.566 823.989 167.791C823.353 167.245 822.658 166.758 821.926 166.335L618.685 48.9936C605.827 38.5493 590.042 35.888 575.165 41.6957L575.16 41.7005ZM988.912 384.513L898.903 540.414L875.527 526.918L965.536 371.017L988.912 384.513ZM601.844 70.79C602.491 71.3426 603.183 71.8283 603.915 72.2509L807.076 189.546C815.353 196.625 826.176 206.081 831.266 215.854L899.962 347.805C907.632 362.52 918.273 372.677 928.491 380.156L865.451 489.344C860.519 486.549 855.174 483.897 848.716 481.907L801.883 467.614C781.133 461.313 765.933 447.292 757.931 427.058L699.783 279.772C692.74 261.932 703.424 250.399 714.71 245.938C717.606 244.793 720.786 244.022 724.045 243.807C724.759 243.836 725.48 243.818 726.185 243.749C734.911 243.849 743.765 248.199 748.584 260.388L790.61 366.85C793.405 373.919 801.393 377.386 808.461 374.594C815.53 371.799 818.997 363.811 816.21 356.735L774.183 250.273C765.331 227.861 747.514 217.492 729.167 216.369L576.018 109.485C569.562 104.975 566.75 98.7858 567.672 91.097C568.879 80.9657 576.408 70.7566 585.174 67.3346C591.016 65.0521 596.471 66.1877 601.849 70.7855L601.844 70.79Z" fill="#1E54BE"/>
<path d="M469.133 41.7005C487.234 48.761 501.559 67.737 503.963 87.8434C506.087 105.612 498.832 121.728 484.047 132.064L349.978 225.635C369.254 238.087 381.176 261.927 370.125 289.887L311.971 437.178C300.764 465.491 279.483 485.129 250.441 493.941L203.659 508.216C199.684 509.442 196.237 511.125 192.621 513.168L199.488 525.063C203.287 531.642 201.031 540.063 194.451 543.861L147.239 571.119C140.66 574.918 132.239 572.662 128.44 566.082L24.6696 386.346C20.8708 379.766 23.1271 371.346 29.7068 367.547L76.9185 340.289C83.4982 336.49 91.9186 338.747 95.7173 345.326L101.943 356.109C110.144 349.691 115.788 343.029 119.93 335.078L188.626 203.127C195.792 189.372 207.7 178.566 220.304 167.791C220.94 167.245 221.635 166.758 222.367 166.335L425.608 48.9936C438.466 38.5493 454.251 35.888 469.128 41.6957L469.133 41.7005ZM55.3812 384.513L145.39 540.414L168.766 526.918L78.757 371.017L55.3812 384.513ZM442.449 70.79C441.802 71.3426 441.11 71.8283 440.378 72.2509L237.217 189.546C228.94 196.625 218.116 206.081 213.027 215.854L144.331 347.805C136.661 362.52 126.02 372.677 115.802 380.156L178.842 489.344C183.774 486.549 189.119 483.897 195.577 481.907L242.41 467.614C263.16 461.313 278.36 447.292 286.362 427.058L344.51 279.772C351.553 261.932 340.869 250.399 329.583 245.938C326.687 244.793 323.507 244.022 320.248 243.807C319.534 243.836 318.813 243.818 318.108 243.749C309.382 243.849 300.528 248.199 295.709 260.388L253.683 366.85C250.888 373.919 242.9 377.386 235.832 374.594C228.763 371.799 225.296 363.811 228.083 356.735L270.11 250.273C278.962 227.861 296.779 217.492 315.125 216.369L468.275 109.485C474.73 104.975 477.543 98.7858 476.621 91.097C475.414 80.9657 467.885 70.7566 459.119 67.3346C453.277 65.0521 447.822 66.1877 442.444 70.7855L442.449 70.79Z" fill="#1E54BE"/>
<path d="M542.712 425.916V290.585H601.871C616.564 290.585 629.453 293.421 640.537 299.092C651.621 304.763 660.257 312.625 666.443 322.678C672.63 332.731 675.723 344.589 675.723 358.251C675.723 371.784 672.63 383.642 666.443 393.824C660.257 403.877 651.621 411.739 640.537 417.41C629.453 423.081 616.564 425.916 601.871 425.916H542.712ZM567.845 404.65H600.711C610.893 404.65 619.657 402.717 627.004 398.85C634.479 394.984 640.215 389.57 644.21 382.611C648.335 375.651 650.397 367.531 650.397 358.251C650.397 348.842 648.335 340.722 644.21 333.891C640.215 326.932 634.479 321.518 627.004 317.652C619.657 313.785 610.893 311.852 600.711 311.852H567.845V404.65Z" fill="#F17300"/>
<path d="M444.531 425.916L385.372 290.585H412.631L465.41 412.963H449.75L503.11 290.585H528.242L469.277 425.916H444.531Z" fill="#F17300"/>
</g>
<defs>
<clipPath id="clip0_1_41">
<rect width="1044" height="600" fill="white"/>
</clipPath>
</defs>
</svg>
